<svg xmlns="http://www.w3.org/2000/svg" xmlns:xlink="http://www.w3.org/1999/xlink" width="577" zoomAndPan="magnify" viewBox="0 0 432.75 89.249998" height="119" preserveAspectRatio="xMidYMid meet" version="1.0"><defs><g/><clipPath id="631bbd8280"><path d="M 14 2 L 424 2 L 424 88.507812 L 14 88.507812 Z M 14 2 " clip-rule="nonzero"/></clipPath><clipPath id="0f08b8d094"><path d="M 218 0.140625 L 409.890625 0.140625 L 409.890625 86.507812 L 218 86.507812 Z M 218 0.140625 " clip-rule="nonzero"/></clipPath><clipPath id="96b10bbddb"><rect x="0" width="192" y="0" height="87"/></clipPath><clipPath id="8e7fa91f5b"><path d="M 137 19 L 218.617188 19 L 218.617188 75 L 137 75 Z M 137 19 " clip-rule="nonzero"/></clipPath><clipPath id="69d8c18ab2"><path d="M 0.769531 0.140625 L 134 0.140625 L 134 86.507812 L 0.769531 86.507812 Z M 0.769531 0.140625 " clip-rule="nonzero"/></clipPath><clipPath id="65c0d8eb13"><rect x="0" width="134" y="0" height="87"/></clipPath><clipPath id="85f2499ff4"><rect x="0" width="410" y="0" height="87"/></clipPath></defs><g clip-path="url(#631bbd8280)"><g transform="matrix(1, 0, 0, 1, 14, 2)"><g clip-path="url(#85f2499ff4)"><g clip-path="url(#0f08b8d094)"><g transform="matrix(1, 0, 0, 1, 218, -0.000000000000011546)"><g clip-path="url(#96b10bbddb)"><g fill="#000000" fill-opacity="1"><g transform="translate(0.414143, 68.989113)"><g><path d="M 38.0625 0 L 28.328125 0 L 28.328125 -20.84375 C 28.328125 -23.425781 27.867188 -25.359375 26.953125 -26.640625 C 26.035156 -27.929688 24.578125 -28.578125 22.578125 -28.578125 C 19.847656 -28.578125 17.875 -27.664062 16.65625 -25.84375 C 15.445312 -24.019531 14.84375 -21.003906 14.84375 -16.796875 L 14.84375 0 L 5.109375 0 L 5.109375 -35.703125 L 12.546875 -35.703125 L 13.859375 -31.125 L 14.40625 -31.125 C 15.488281 -32.851562 16.984375 -34.15625 18.890625 -35.03125 C 20.796875 -35.914062 22.960938 -36.359375 25.390625 -36.359375 C 29.535156 -36.359375 32.679688 -35.234375 34.828125 -32.984375 C 36.984375 -30.742188 38.0625 -27.507812 38.0625 -23.28125 Z M 38.0625 0 "/></g></g></g><g fill="#000000" fill-opacity="1"><g transform="translate(43.385828, 68.989113)"><g><path d="M 25.703125 -39.109375 C 21.972656 -39.109375 19.085938 -37.707031 17.046875 -34.90625 C 15.003906 -32.113281 13.984375 -28.21875 13.984375 -23.21875 C 13.984375 -12.800781 17.890625 -7.59375 25.703125 -7.59375 C 28.984375 -7.59375 32.953125 -8.414062 37.609375 -10.0625 L 37.609375 -1.75 C 33.773438 -0.15625 29.5 0.640625 24.78125 0.640625 C 17.988281 0.640625 12.789062 -1.414062 9.1875 -5.53125 C 5.59375 -9.65625 3.796875 -15.570312 3.796875 -23.28125 C 3.796875 -28.132812 4.675781 -32.382812 6.4375 -36.03125 C 8.207031 -39.675781 10.75 -42.472656 14.0625 -44.421875 C 17.375 -46.367188 21.253906 -47.34375 25.703125 -47.34375 C 30.234375 -47.34375 34.789062 -46.25 39.375 -44.0625 L 36.171875 -36.015625 C 34.429688 -36.847656 32.675781 -37.570312 30.90625 -38.1875 C 29.132812 -38.800781 27.398438 -39.109375 25.703125 -39.109375 Z M 25.703125 -39.109375 "/></g></g></g><g fill="#000000" fill-opacity="1"><g transform="translate(85.048607, 68.989113)"><g><path d="M 15.765625 -25.953125 L 18.96875 -25.953125 C 22.09375 -25.953125 24.398438 -26.472656 25.890625 -27.515625 C 27.378906 -28.566406 28.125 -30.207031 28.125 -32.4375 C 28.125 -34.65625 27.363281 -36.226562 25.84375 -37.15625 C 24.320312 -38.09375 21.96875 -38.5625 18.78125 -38.5625 L 15.765625 -38.5625 Z M 15.765625 -17.90625 L 15.765625 0 L 5.875 0 L 5.875 -46.6875 L 19.484375 -46.6875 C 25.816406 -46.6875 30.503906 -45.53125 33.546875 -43.21875 C 36.597656 -40.90625 38.125 -37.398438 38.125 -32.703125 C 38.125 -29.953125 37.367188 -27.503906 35.859375 -25.359375 C 34.347656 -23.222656 32.207031 -21.550781 29.4375 -20.34375 C 36.457031 -9.84375 41.035156 -3.0625 43.171875 0 L 32.1875 0 L 21.046875 -17.90625 Z M 15.765625 -17.90625 "/></g></g></g><g fill="#000000" fill-opacity="1"><g transform="translate(128.211845, 68.989113)"><g><path d="M 25.640625 0 L 14.40625 -36.625 L 14.109375 -36.625 C 14.515625 -29.175781 14.71875 -24.207031 14.71875 -21.71875 L 14.71875 0 L 5.875 0 L 5.875 -46.6875 L 19.34375 -46.6875 L 30.390625 -10.984375 L 30.59375 -10.984375 L 42.3125 -46.6875 L 55.78125 -46.6875 L 55.78125 0 L 46.546875 0 L 46.546875 -22.09375 C 46.546875 -23.132812 46.5625 -24.335938 46.59375 -25.703125 C 46.625 -27.066406 46.769531 -30.6875 47.03125 -36.5625 L 46.75 -36.5625 L 34.703125 0 Z M 25.640625 0 "/></g></g></g></g></g></g><g clip-path="url(#8e7fa91f5b)"><path fill="#ff5c35" d="M 191.867188 19.546875 C 190.378906 19.480469 188.894531 19.539062 187.414062 19.710938 C 185.9375 19.886719 184.480469 20.179688 183.046875 20.59375 C 181.613281 21.003906 180.226562 21.527344 178.878906 22.164062 C 177.53125 22.800781 176.242188 23.539062 175.015625 24.386719 C 173.789062 25.230469 172.636719 26.167969 171.5625 27.199219 C 170.484375 28.234375 169.5 29.34375 168.605469 30.535156 C 167.710938 31.726562 166.917969 32.984375 166.226562 34.300781 C 165.535156 35.621094 164.953125 36.988281 164.484375 38.402344 C 164.011719 39.816406 163.660156 41.261719 163.421875 42.730469 C 163.1875 44.203125 163.070312 45.683594 163.074219 47.175781 C 163.078125 48.664062 163.203125 50.144531 163.445312 51.613281 C 163.6875 53.085938 164.046875 54.527344 164.527344 55.9375 C 165.003906 57.351562 165.589844 58.714844 166.289062 60.03125 C 166.988281 61.347656 167.785156 62.597656 168.6875 63.785156 C 169.589844 64.972656 170.578125 66.078125 171.660156 67.105469 C 172.738281 68.132812 173.894531 69.066406 175.128906 69.902344 C 171.394531 71.472656 167.507812 72.09375 163.472656 71.761719 C 132.148438 67.972656 133.988281 23.519531 165.5 22.390625 C 167.234375 22.390625 168.949219 22.570312 170.648438 22.929688 C 170.832031 22.972656 171.019531 22.976562 171.207031 22.945312 C 171.398438 22.910156 171.570312 22.84375 171.734375 22.742188 C 171.894531 22.640625 172.027344 22.507812 172.136719 22.351562 C 172.246094 22.195312 172.320312 22.023438 172.363281 21.835938 C 172.402344 21.652344 172.40625 21.464844 172.371094 21.277344 C 172.335938 21.085938 172.265625 20.914062 172.164062 20.753906 C 172.058594 20.59375 171.925781 20.460938 171.769531 20.351562 C 171.609375 20.246094 171.4375 20.171875 171.25 20.136719 C 155.898438 16.554688 139.746094 28.039062 138.105469 43.757812 C 137.988281 44.722656 137.921875 45.691406 137.90625 46.667969 C 137.894531 47.640625 137.929688 48.613281 138.019531 49.582031 C 138.105469 50.550781 138.246094 51.515625 138.433594 52.46875 C 138.625 53.425781 138.863281 54.367188 139.15625 55.296875 C 139.445312 56.226562 139.78125 57.136719 140.167969 58.03125 C 140.554688 58.925781 140.984375 59.796875 141.464844 60.644531 C 141.941406 61.492188 142.464844 62.316406 143.027344 63.109375 C 143.59375 63.902344 144.199219 64.664062 144.84375 65.390625 C 145.488281 66.121094 146.171875 66.8125 146.890625 67.472656 C 147.609375 68.128906 148.359375 68.746094 149.144531 69.324219 C 149.925781 69.902344 150.738281 70.4375 151.578125 70.925781 C 152.421875 71.417969 153.285156 71.867188 154.171875 72.265625 C 155.058594 72.667969 155.964844 73.019531 156.890625 73.324219 C 157.816406 73.628906 158.753906 73.882812 159.707031 74.089844 C 160.65625 74.292969 161.617188 74.449219 162.585938 74.554688 C 163.554688 74.65625 164.523438 74.710938 165.5 74.710938 C 192.644531 74.445312 203.265625 39.714844 181.039062 24.328125 C 181.933594 23.953125 182.84375 23.628906 183.777344 23.359375 C 184.707031 23.09375 185.652344 22.878906 186.609375 22.722656 C 187.5625 22.5625 188.527344 22.460938 189.496094 22.417969 C 190.460938 22.371094 191.429688 22.382812 192.398438 22.453125 C 193.363281 22.523438 194.324219 22.648438 195.277344 22.828125 C 196.226562 23.011719 197.164062 23.246094 198.089844 23.539062 C 199.015625 23.832031 199.917969 24.175781 200.800781 24.574219 C 201.6875 24.972656 202.542969 25.421875 203.375 25.921875 C 204.203125 26.421875 205.003906 26.96875 205.769531 27.5625 C 206.535156 28.15625 207.265625 28.789062 207.957031 29.46875 C 208.648438 30.148438 209.296875 30.867188 209.90625 31.621094 C 210.511719 32.375 211.074219 33.164062 211.589844 33.984375 C 212.105469 34.808594 212.570312 35.65625 212.984375 36.53125 C 213.398438 37.410156 213.761719 38.304688 214.070312 39.222656 C 214.378906 40.144531 214.632812 41.078125 214.832031 42.023438 C 215.03125 42.972656 215.175781 43.929688 215.261719 44.894531 C 215.351562 45.863281 215.378906 46.828125 215.355469 47.796875 C 215.328125 48.765625 215.242188 49.730469 215.101562 50.691406 C 214.964844 51.648438 214.765625 52.597656 214.515625 53.53125 C 214.265625 54.46875 213.957031 55.386719 213.597656 56.285156 C 213.238281 57.1875 212.828125 58.0625 212.367188 58.914062 C 211.902344 59.765625 211.394531 60.589844 210.832031 61.378906 C 210.273438 62.171875 209.671875 62.929688 209.023438 63.648438 C 208.375 64.371094 207.6875 65.050781 206.957031 65.691406 C 206.230469 66.328125 205.464844 66.925781 204.667969 67.472656 C 203.871094 68.023438 203.042969 68.527344 202.1875 68.980469 C 201.328125 69.429688 200.449219 69.832031 199.542969 70.179688 C 198.640625 70.53125 197.71875 70.824219 196.777344 71.066406 C 195.839844 71.308594 194.890625 71.492188 193.929688 71.621094 C 192.96875 71.75 192.003906 71.820312 191.035156 71.835938 C 190.066406 71.851562 189.097656 71.8125 188.132812 71.714844 C 187.171875 71.617188 186.214844 71.460938 185.269531 71.25 C 185.015625 71.191406 184.761719 71.203125 184.511719 71.28125 C 184.265625 71.359375 184.054688 71.5 183.878906 71.695312 C 183.796875 71.789062 183.730469 71.890625 183.675781 72.003906 C 183.621094 72.113281 183.578125 72.230469 183.554688 72.351562 C 183.53125 72.472656 183.519531 72.597656 183.527344 72.722656 C 183.535156 72.84375 183.558594 72.964844 183.597656 73.085938 C 183.636719 73.203125 183.6875 73.3125 183.753906 73.417969 C 183.824219 73.523438 183.902344 73.617188 183.992188 73.703125 C 184.085938 73.785156 184.1875 73.855469 184.296875 73.914062 C 184.40625 73.972656 184.523438 74.015625 184.644531 74.042969 C 201.503906 78.03125 218.425781 64.570312 218.261719 47.214844 C 218.257812 46.335938 218.214844 45.460938 218.128906 44.585938 C 218.039062 43.710938 217.914062 42.839844 217.742188 41.980469 C 217.574219 41.117188 217.367188 40.261719 217.117188 39.421875 C 216.867188 38.578125 216.578125 37.75 216.25 36.933594 C 215.917969 36.117188 215.554688 35.320312 215.148438 34.539062 C 214.746094 33.757812 214.304688 33 213.828125 32.261719 C 213.351562 31.523438 212.84375 30.808594 212.300781 30.117188 C 211.753906 29.425781 211.179688 28.761719 210.574219 28.125 C 209.96875 27.492188 209.332031 26.886719 208.667969 26.308594 C 208.003906 25.734375 207.3125 25.191406 206.597656 24.679688 C 205.882812 24.167969 205.144531 23.695312 204.382812 23.253906 C 203.621094 22.8125 202.84375 22.410156 202.042969 22.042969 C 201.246094 21.675781 200.429688 21.347656 199.601562 21.058594 C 198.769531 20.769531 197.929688 20.523438 197.074219 20.3125 C 196.222656 20.101562 195.359375 19.933594 194.488281 19.808594 C 193.621094 19.679688 192.746094 19.59375 191.867188 19.546875 Z M 180.996094 62.226562 L 174.855469 62.226562 C 174.667969 62.222656 174.484375 62.183594 174.3125 62.113281 C 174.140625 62.039062 173.984375 61.933594 173.855469 61.800781 C 173.722656 61.664062 173.621094 61.511719 173.546875 61.335938 C 173.476562 61.160156 173.441406 60.980469 173.441406 60.792969 C 173.441406 60.601562 173.476562 60.421875 173.546875 60.246094 C 173.621094 60.074219 173.722656 59.917969 173.855469 59.785156 C 173.984375 59.648438 174.140625 59.546875 174.3125 59.472656 C 174.484375 59.398438 174.667969 59.359375 174.855469 59.355469 L 180.996094 59.355469 C 181.183594 59.359375 181.367188 59.398438 181.539062 59.472656 C 181.710938 59.546875 181.867188 59.648438 181.996094 59.785156 C 182.128906 59.917969 182.230469 60.074219 182.304688 60.246094 C 182.375 60.421875 182.410156 60.601562 182.410156 60.792969 C 182.410156 60.980469 182.375 61.160156 182.304688 61.335938 C 182.230469 61.511719 182.128906 61.664062 181.996094 61.800781 C 181.867188 61.933594 181.710938 62.039062 181.539062 62.113281 C 181.367188 62.183594 181.183594 62.222656 180.996094 62.226562 Z M 183.207031 55.382812 L 172.644531 55.382812 C 172.457031 55.378906 172.277344 55.339844 172.101562 55.265625 C 171.929688 55.191406 171.777344 55.089844 171.644531 54.953125 C 171.511719 54.820312 171.410156 54.664062 171.339844 54.492188 C 171.265625 54.316406 171.230469 54.136719 171.230469 53.945312 C 171.230469 53.757812 171.265625 53.578125 171.339844 53.402344 C 171.410156 53.226562 171.511719 53.074219 171.644531 52.941406 C 171.777344 52.804688 171.929688 52.703125 172.101562 52.628906 C 172.277344 52.554688 172.457031 52.515625 172.644531 52.511719 L 183.207031 52.511719 C 183.394531 52.515625 183.578125 52.550781 183.75 52.625 C 183.921875 52.699219 184.078125 52.804688 184.210938 52.9375 C 184.34375 53.074219 184.445312 53.226562 184.515625 53.402344 C 184.585938 53.578125 184.625 53.757812 184.625 53.945312 C 184.625 54.136719 184.585938 54.316406 184.515625 54.492188 C 184.445312 54.667969 184.34375 54.820312 184.210938 54.957031 C 184.078125 55.089844 183.921875 55.195312 183.75 55.265625 C 183.578125 55.339844 183.394531 55.378906 183.207031 55.382812 Z M 173.421875 47.117188 C 173.421875 46.925781 173.457031 46.742188 173.53125 46.566406 C 173.601562 46.390625 173.707031 46.238281 173.839844 46.101562 C 173.976562 45.96875 174.132812 45.863281 174.304688 45.792969 C 174.480469 45.71875 174.664062 45.683594 174.855469 45.679688 L 180.996094 45.679688 C 181.1875 45.679688 181.371094 45.71875 181.546875 45.789062 C 181.722656 45.863281 181.875 45.96875 182.011719 46.101562 C 182.144531 46.234375 182.25 46.390625 182.324219 46.566406 C 182.394531 46.742188 182.429688 46.925781 182.429688 47.117188 C 182.429688 47.308594 182.394531 47.488281 182.324219 47.664062 C 182.25 47.839844 182.144531 47.996094 182.011719 48.132812 C 181.875 48.265625 181.722656 48.371094 181.546875 48.441406 C 181.371094 48.515625 181.1875 48.550781 180.996094 48.550781 L 174.855469 48.550781 C 174.664062 48.550781 174.480469 48.515625 174.304688 48.441406 C 174.132812 48.367188 173.976562 48.265625 173.839844 48.128906 C 173.707031 47.996094 173.601562 47.839844 173.53125 47.664062 C 173.457031 47.488281 173.421875 47.304688 173.421875 47.117188 Z M 184.640625 40.285156 C 184.640625 40.476562 184.605469 40.660156 184.535156 40.835938 C 184.460938 41.011719 184.355469 41.167969 184.222656 41.300781 C 184.085938 41.4375 183.933594 41.539062 183.757812 41.613281 C 183.582031 41.6875 183.398438 41.722656 183.207031 41.722656 L 172.644531 41.722656 C 172.453125 41.722656 172.273438 41.683594 172.097656 41.613281 C 171.921875 41.539062 171.765625 41.433594 171.628906 41.300781 C 171.496094 41.167969 171.390625 41.011719 171.320312 40.835938 C 171.246094 40.660156 171.210938 40.476562 171.210938 40.285156 C 171.210938 40.09375 171.246094 39.914062 171.320312 39.738281 C 171.390625 39.5625 171.496094 39.40625 171.628906 39.269531 C 171.765625 39.136719 171.921875 39.03125 172.097656 38.960938 C 172.273438 38.886719 172.453125 38.851562 172.644531 38.851562 L 183.207031 38.851562 C 183.398438 38.847656 183.582031 38.882812 183.757812 38.957031 C 183.933594 39.027344 184.089844 39.132812 184.226562 39.265625 C 184.359375 39.402344 184.464844 39.558594 184.535156 39.734375 C 184.609375 39.910156 184.644531 40.09375 184.640625 40.285156 Z M 182.429688 33.441406 C 182.429688 33.632812 182.394531 33.8125 182.320312 33.988281 C 182.25 34.164062 182.144531 34.320312 182.011719 34.453125 C 181.875 34.589844 181.71875 34.691406 181.546875 34.765625 C 181.371094 34.839844 181.1875 34.875 180.996094 34.875 L 174.855469 34.875 C 174.664062 34.875 174.480469 34.839844 174.304688 34.765625 C 174.128906 34.695312 173.976562 34.589844 173.839844 34.457031 C 173.707031 34.320312 173.601562 34.167969 173.527344 33.992188 C 173.457031 33.816406 173.421875 33.632812 173.421875 33.441406 C 173.421875 33.25 173.457031 33.066406 173.527344 32.890625 C 173.601562 32.714844 173.707031 32.5625 173.839844 32.425781 C 173.976562 32.292969 174.128906 32.1875 174.304688 32.117188 C 174.480469 32.042969 174.664062 32.007812 174.855469 32.007812 L 180.996094 32.007812 C 181.1875 32.007812 181.371094 32.042969 181.546875 32.117188 C 181.71875 32.191406 181.875 32.292969 182.011719 32.429688 C 182.144531 32.5625 182.25 32.71875 182.320312 32.894531 C 182.394531 33.066406 182.429688 33.25 182.429688 33.441406 Z M 182.429688 33.441406 " fill-opacity="1" fill-rule="nonzero"/></g><g clip-path="url(#69d8c18ab2)"><g transform="matrix(1, 0, 0, 1, 0, -0.000000000000011546)"><g clip-path="url(#65c0d8eb13)"><g fill="#000000" fill-opacity="1"><g transform="translate(0.78469, 68.989113)"><g><path d="M 15.609375 0 L 5.875 0 L 5.875 -46.6875 L 32.625 -46.6875 L 32.625 -38.5625 L 15.609375 -38.5625 L 15.609375 -26.53125 L 31.453125 -26.53125 L 31.453125 -18.453125 L 15.609375 -18.453125 Z M 15.609375 0 "/></g></g></g><g fill="#000000" fill-opacity="1"><g transform="translate(36.668921, 68.989113)"><g><path d="M 30.390625 0 L 29.09375 -4.5625 L 28.578125 -4.5625 C 27.535156 -2.90625 26.054688 -1.625 24.140625 -0.71875 C 22.222656 0.1875 20.039062 0.640625 17.59375 0.640625 C 13.394531 0.640625 10.234375 -0.476562 8.109375 -2.71875 C 5.984375 -4.96875 4.921875 -8.203125 4.921875 -12.421875 L 4.921875 -35.703125 L 14.65625 -35.703125 L 14.65625 -14.84375 C 14.65625 -12.269531 15.113281 -10.335938 16.03125 -9.046875 C 16.945312 -7.765625 18.40625 -7.125 20.40625 -7.125 C 23.125 -7.125 25.085938 -8.03125 26.296875 -9.84375 C 27.515625 -11.664062 28.125 -14.6875 28.125 -18.90625 L 28.125 -35.703125 L 37.875 -35.703125 L 37.875 0 Z M 30.390625 0 "/></g></g></g><g fill="#000000" fill-opacity="1"><g transform="translate(79.640606, 68.989113)"><g><path d="M 30.015625 -10.59375 C 30.015625 -6.9375 28.738281 -4.148438 26.1875 -2.234375 C 23.644531 -0.316406 19.84375 0.640625 14.78125 0.640625 C 12.1875 0.640625 9.972656 0.460938 8.140625 0.109375 C 6.304688 -0.242188 4.59375 -0.757812 3 -1.4375 L 3 -9.484375 C 4.8125 -8.628906 6.847656 -7.914062 9.109375 -7.34375 C 11.378906 -6.769531 13.378906 -6.484375 15.109375 -6.484375 C 18.640625 -6.484375 20.40625 -7.503906 20.40625 -9.546875 C 20.40625 -10.316406 20.171875 -10.941406 19.703125 -11.421875 C 19.234375 -11.898438 18.421875 -12.441406 17.265625 -13.046875 C 16.117188 -13.648438 14.585938 -14.359375 12.671875 -15.171875 C 9.929688 -16.316406 7.914062 -17.378906 6.625 -18.359375 C 5.332031 -19.335938 4.394531 -20.457031 3.8125 -21.71875 C 3.226562 -22.988281 2.9375 -24.550781 2.9375 -26.40625 C 2.9375 -29.570312 4.164062 -32.019531 6.625 -33.75 C 9.082031 -35.488281 12.566406 -36.359375 17.078125 -36.359375 C 21.378906 -36.359375 25.5625 -35.425781 29.625 -33.5625 L 26.6875 -26.53125 C 24.90625 -27.300781 23.234375 -27.929688 21.671875 -28.421875 C 20.117188 -28.910156 18.535156 -29.15625 16.921875 -29.15625 C 14.046875 -29.15625 12.609375 -28.378906 12.609375 -26.828125 C 12.609375 -25.953125 13.070312 -25.191406 14 -24.546875 C 14.925781 -23.910156 16.953125 -22.96875 20.078125 -21.71875 C 22.867188 -20.582031 24.910156 -19.523438 26.203125 -18.546875 C 27.503906 -17.566406 28.460938 -16.4375 29.078125 -15.15625 C 29.703125 -13.882812 30.015625 -12.363281 30.015625 -10.59375 Z M 30.015625 -10.59375 "/></g></g></g><g fill="#000000" fill-opacity="1"><g transform="translate(112.140737, 68.989113)"><g><path d="M 4.6875 -44.921875 C 4.6875 -48.097656 6.457031 -49.6875 10 -49.6875 C 13.53125 -49.6875 15.296875 -48.097656 15.296875 -44.921875 C 15.296875 -43.410156 14.851562 -42.234375 13.96875 -41.390625 C 13.082031 -40.554688 11.757812 -40.140625 10 -40.140625 C 6.457031 -40.140625 4.6875 -41.734375 4.6875 -44.921875 Z M 14.84375 0 L 5.109375 0 L 5.109375 -35.703125 L 14.84375 -35.703125 Z M 14.84375 0 "/></g></g></g></g></g></g></g></g></g></svg>