<svg xmlns="http://www.w3.org/2000/svg" xmlns:xlink="http://www.w3.org/1999/xlink" width="500" zoomAndPan="magnify" viewBox="0 0 375 374.999991" height="500" preserveAspectRatio="xMidYMid meet" version="1.0"><defs><clipPath id="c5e1db4318"><path d="M 15 66 L 365.855469 66 L 365.855469 308 L 15 308 Z M 15 66 " clip-rule="nonzero"/></clipPath><clipPath id="e02673cd18"><path d="M 143.625 226.480469 L 231.394531 226.480469 L 231.394531 231.914062 L 143.625 231.914062 Z M 143.625 226.480469 " clip-rule="nonzero"/></clipPath><clipPath id="45136141f0"><path d="M 146.339844 226.480469 L 228.660156 226.480469 C 230.160156 226.480469 231.375 227.695312 231.375 229.195312 C 231.375 230.695312 230.160156 231.914062 228.660156 231.914062 L 146.339844 231.914062 C 144.839844 231.914062 143.625 230.695312 143.625 229.195312 C 143.625 227.695312 144.839844 226.480469 146.339844 226.480469 Z M 146.339844 226.480469 " clip-rule="nonzero"/></clipPath><clipPath id="0cfb061ab7"><path d="M 0.625 0.480469 L 88.394531 0.480469 L 88.394531 5.914062 L 0.625 5.914062 Z M 0.625 0.480469 " clip-rule="nonzero"/></clipPath><clipPath id="72fb6b79ef"><path d="M 3.339844 0.480469 L 85.660156 0.480469 C 87.160156 0.480469 88.375 1.695312 88.375 3.195312 C 88.375 4.695312 87.160156 5.914062 85.660156 5.914062 L 3.339844 5.914062 C 1.839844 5.914062 0.625 4.695312 0.625 3.195312 C 0.625 1.695312 1.839844 0.480469 3.339844 0.480469 Z M 3.339844 0.480469 " clip-rule="nonzero"/></clipPath><clipPath id="c054055766"><rect x="0" width="89" y="0" height="6"/></clipPath></defs><g clip-path="url(#c5e1db4318)"><path fill="#ff5c35" d="M 250.460938 67 C 247.230469 66.859375 244 66.847656 240.765625 66.96875 C 237.535156 67.085938 234.3125 67.335938 231.101562 67.714844 C 227.886719 68.097656 224.695312 68.605469 221.523438 69.246094 C 218.355469 69.882812 215.214844 70.648438 212.105469 71.542969 C 208.996094 72.433594 205.929688 73.449219 202.902344 74.589844 C 199.875 75.730469 196.898438 76.992188 193.972656 78.375 C 191.050781 79.757812 188.183594 81.253906 185.382812 82.867188 C 182.578125 84.480469 179.84375 86.203125 177.179688 88.039062 C 174.515625 89.871094 171.929688 91.8125 169.421875 93.855469 C 166.914062 95.898438 164.496094 98.039062 162.160156 100.277344 C 159.828125 102.519531 157.585938 104.847656 155.441406 107.269531 C 153.296875 109.691406 151.25 112.191406 149.308594 114.777344 C 147.363281 117.363281 145.53125 120.023438 143.800781 122.757812 C 142.074219 125.492188 140.460938 128.292969 138.957031 131.160156 C 137.457031 134.023438 136.074219 136.945312 134.808594 139.921875 C 133.542969 142.898438 132.402344 145.921875 131.378906 148.992188 C 130.359375 152.0625 129.464844 155.167969 128.695312 158.308594 C 127.925781 161.449219 127.285156 164.617188 126.773438 167.8125 C 126.257812 171.003906 125.875 174.214844 125.625 177.4375 C 125.371094 180.664062 125.246094 183.894531 125.253906 187.128906 C 125.261719 190.363281 125.402344 193.589844 125.671875 196.816406 C 125.941406 200.039062 126.339844 203.246094 126.867188 206.4375 C 127.394531 209.628906 128.054688 212.792969 128.835938 215.929688 C 129.621094 219.066406 130.53125 222.167969 131.566406 225.234375 C 132.605469 228.296875 133.761719 231.316406 135.039062 234.285156 C 136.320312 237.257812 137.71875 240.171875 139.234375 243.027344 C 140.75 245.886719 142.378906 248.679688 144.117188 251.402344 C 145.859375 254.128906 147.707031 256.78125 149.664062 259.359375 C 151.621094 261.933594 153.675781 264.425781 155.835938 266.835938 C 157.992188 269.246094 160.242188 271.566406 162.589844 273.792969 C 164.933594 276.023438 167.363281 278.152344 169.882812 280.183594 C 172.398438 282.214844 174.992188 284.140625 177.667969 285.960938 C 169.667969 289.324219 161.382812 291.6875 152.8125 293.054688 C 144.242188 294.417969 135.632812 294.746094 126.984375 294.035156 C -9.222656 277.566406 -1.214844 84.273438 135.800781 79.367188 C 143.34375 79.363281 150.804688 80.140625 158.183594 81.703125 C 158.585938 81.796875 158.992188 81.847656 159.402344 81.859375 C 159.8125 81.867188 160.222656 81.839844 160.625 81.769531 C 161.03125 81.699219 161.425781 81.589844 161.808594 81.441406 C 162.195312 81.292969 162.558594 81.109375 162.90625 80.886719 C 163.253906 80.667969 163.574219 80.414062 163.871094 80.128906 C 164.167969 79.84375 164.433594 79.535156 164.667969 79.195312 C 164.902344 78.859375 165.101562 78.503906 165.265625 78.125 C 165.429688 77.746094 165.558594 77.359375 165.644531 76.957031 C 165.730469 76.554688 165.777344 76.148438 165.785156 75.738281 C 165.789062 75.324219 165.753906 74.917969 165.679688 74.515625 C 165.605469 74.109375 165.492188 73.714844 165.339844 73.335938 C 165.1875 72.953125 164.996094 72.589844 164.773438 72.246094 C 164.546875 71.902344 164.292969 71.582031 164.003906 71.289062 C 163.714844 70.996094 163.402344 70.734375 163.0625 70.503906 C 162.722656 70.269531 162.363281 70.074219 161.984375 69.917969 C 161.605469 69.757812 161.210938 69.636719 160.808594 69.554688 C 94.046875 53.980469 23.820312 103.925781 16.683594 172.265625 C 16.429688 174.367188 16.230469 176.472656 16.085938 178.582031 C 15.945312 180.691406 15.855469 182.804688 15.824219 184.921875 C 15.792969 187.035156 15.816406 189.152344 15.898438 191.265625 C 15.976562 193.378906 16.113281 195.492188 16.304688 197.597656 C 16.496094 199.703125 16.742188 201.804688 17.046875 203.898438 C 17.347656 205.992188 17.707031 208.078125 18.121094 210.152344 C 18.53125 212.226562 19 214.289062 19.519531 216.339844 C 20.042969 218.390625 20.617188 220.425781 21.246094 222.445312 C 21.875 224.464844 22.558594 226.46875 23.292969 228.449219 C 24.027344 230.433594 24.816406 232.398438 25.652344 234.339844 C 26.492188 236.28125 27.382812 238.203125 28.320312 240.097656 C 29.261719 241.992188 30.25 243.859375 31.289062 245.703125 C 32.328125 247.546875 33.414062 249.363281 34.550781 251.148438 C 35.683594 252.933594 36.863281 254.6875 38.09375 256.410156 C 39.320312 258.132812 40.589844 259.824219 41.90625 261.480469 C 43.222656 263.136719 44.582031 264.757812 45.984375 266.339844 C 47.386719 267.925781 48.832031 269.472656 50.3125 270.980469 C 51.796875 272.488281 53.320312 273.957031 54.882812 275.382812 C 56.441406 276.8125 58.039062 278.195312 59.675781 279.539062 C 61.308594 280.882812 62.980469 282.183594 64.683594 283.4375 C 66.386719 284.691406 68.121094 285.902344 69.886719 287.066406 C 71.652344 288.226562 73.449219 289.34375 75.277344 290.414062 C 77.101562 291.480469 78.957031 292.5 80.835938 293.472656 C 82.714844 294.441406 84.617188 295.363281 86.546875 296.234375 C 88.476562 297.101562 90.425781 297.921875 92.398438 298.6875 C 94.367188 299.457031 96.359375 300.167969 98.367188 300.832031 C 100.378906 301.492188 102.402344 302.101562 104.445312 302.65625 C 106.488281 303.210938 108.542969 303.710938 110.609375 304.160156 C 112.679688 304.605469 114.757812 304.996094 116.84375 305.332031 C 118.933594 305.671875 121.03125 305.953125 123.132812 306.175781 C 125.238281 306.402344 127.34375 306.574219 129.457031 306.6875 C 131.570312 306.800781 133.683594 306.859375 135.800781 306.863281 C 253.828125 305.710938 300.023438 154.683594 203.375 87.792969 C 205.3125 86.972656 207.277344 86.214844 209.261719 85.511719 C 211.246094 84.808594 213.25 84.167969 215.273438 83.582031 C 217.296875 83 219.335938 82.472656 221.386719 82.007812 C 223.441406 81.542969 225.507812 81.140625 227.585938 80.796875 C 229.664062 80.453125 231.75 80.171875 233.84375 79.953125 C 235.9375 79.730469 238.035156 79.570312 240.136719 79.476562 C 242.242188 79.378906 244.347656 79.339844 246.453125 79.367188 C 248.558594 79.394531 250.660156 79.480469 252.761719 79.632812 C 254.859375 79.78125 256.953125 79.992188 259.042969 80.265625 C 261.128906 80.539062 263.207031 80.871094 265.277344 81.269531 C 267.34375 81.664062 269.398438 82.117188 271.441406 82.632812 C 273.480469 83.148438 275.507812 83.726562 277.515625 84.359375 C 279.523438 84.992188 281.507812 85.6875 283.476562 86.4375 C 285.441406 87.191406 287.386719 88 289.304688 88.863281 C 291.226562 89.730469 293.117188 90.652344 294.984375 91.628906 C 296.847656 92.605469 298.683594 93.636719 300.488281 94.71875 C 302.292969 95.804688 304.0625 96.941406 305.800781 98.128906 C 307.539062 99.316406 309.242188 100.554688 310.90625 101.84375 C 312.574219 103.132812 314.199219 104.46875 315.785156 105.855469 C 317.371094 107.238281 318.917969 108.667969 320.417969 110.144531 C 321.921875 111.617188 323.378906 113.136719 324.792969 114.695312 C 326.207031 116.257812 327.574219 117.859375 328.894531 119.5 C 330.210938 121.140625 331.484375 122.816406 332.703125 124.53125 C 333.925781 126.25 335.09375 128 336.210938 129.78125 C 337.328125 131.566406 338.394531 133.382812 339.40625 135.230469 C 340.417969 137.074219 341.375 138.949219 342.273438 140.855469 C 343.175781 142.757812 344.019531 144.683594 344.808594 146.636719 C 345.597656 148.589844 346.328125 150.5625 347 152.558594 C 347.671875 154.554688 348.285156 156.566406 348.835938 158.597656 C 349.390625 160.632812 349.886719 162.675781 350.320312 164.738281 C 350.75 166.796875 351.125 168.871094 351.4375 170.953125 C 351.75 173.035156 352 175.125 352.1875 177.222656 C 352.375 179.316406 352.503906 181.417969 352.570312 183.523438 C 352.636719 185.628906 352.640625 187.734375 352.582031 189.835938 C 352.523438 191.941406 352.402344 194.042969 352.222656 196.140625 C 352.039062 198.238281 351.796875 200.328125 351.492188 202.414062 C 351.1875 204.496094 350.824219 206.570312 350.398438 208.632812 C 349.96875 210.691406 349.484375 212.742188 348.9375 214.773438 C 348.390625 216.808594 347.785156 218.824219 347.121094 220.820312 C 346.457031 222.820312 345.734375 224.796875 344.953125 226.75 C 344.171875 228.707031 343.332031 230.636719 342.4375 232.542969 C 341.542969 234.449219 340.59375 236.328125 339.589844 238.179688 C 338.585938 240.027344 337.527344 241.847656 336.414062 243.636719 C 335.304688 245.425781 334.140625 247.179688 332.925781 248.898438 C 331.710938 250.617188 330.445312 252.300781 329.132812 253.945312 C 327.820312 255.59375 326.457031 257.199219 325.050781 258.761719 C 323.640625 260.328125 322.191406 261.851562 320.691406 263.332031 C 319.195312 264.8125 317.65625 266.246094 316.074219 267.636719 C 314.492188 269.027344 312.871094 270.367188 311.210938 271.664062 C 309.550781 272.957031 307.851562 274.203125 306.117188 275.398438 C 304.382812 276.59375 302.617188 277.734375 300.816406 278.828125 C 299.015625 279.917969 297.183594 280.953125 295.324219 281.9375 C 293.460938 282.921875 291.570312 283.847656 289.65625 284.722656 C 287.738281 285.59375 285.796875 286.410156 283.835938 287.167969 C 281.871094 287.925781 279.886719 288.625 277.878906 289.269531 C 275.875 289.910156 273.851562 290.492188 271.8125 291.015625 C 269.773438 291.539062 267.71875 292 265.652344 292.402344 C 263.585938 292.804688 261.507812 293.148438 259.421875 293.425781 C 257.335938 293.707031 255.242188 293.925781 253.140625 294.082031 C 251.042969 294.242188 248.941406 294.335938 246.835938 294.371094 C 244.730469 294.40625 242.625 294.375 240.519531 294.285156 C 238.417969 294.195312 236.320312 294.046875 234.222656 293.832031 C 232.128906 293.617188 230.042969 293.34375 227.964844 293.007812 C 225.886719 292.671875 223.816406 292.277344 221.761719 291.820312 C 221.21875 291.691406 220.667969 291.640625 220.109375 291.660156 C 219.554688 291.683594 219.007812 291.777344 218.476562 291.949219 C 217.945312 292.117188 217.445312 292.355469 216.980469 292.660156 C 216.511719 292.964844 216.09375 293.328125 215.722656 293.746094 C 215.546875 293.949219 215.382812 294.164062 215.234375 294.386719 C 215.085938 294.609375 214.953125 294.84375 214.832031 295.085938 C 214.714844 295.328125 214.609375 295.574219 214.523438 295.828125 C 214.4375 296.085938 214.367188 296.34375 214.3125 296.605469 C 214.257812 296.871094 214.222656 297.136719 214.203125 297.40625 C 214.183594 297.675781 214.179688 297.941406 214.195312 298.210938 C 214.210938 298.480469 214.242188 298.746094 214.292969 299.011719 C 214.34375 299.277344 214.410156 299.535156 214.492188 299.792969 C 214.574219 300.046875 214.675781 300.296875 214.789062 300.542969 C 214.90625 300.785156 215.035156 301.019531 215.183594 301.246094 C 215.328125 301.472656 215.488281 301.6875 215.660156 301.894531 C 215.832031 302.101562 216.019531 302.292969 216.21875 302.476562 C 216.417969 302.65625 216.625 302.824219 216.847656 302.980469 C 217.066406 303.136719 217.296875 303.277344 217.535156 303.402344 C 217.773438 303.527344 218.019531 303.636719 218.269531 303.730469 C 218.523438 303.824219 218.78125 303.898438 219.042969 303.960938 C 292.359375 321.300781 365.933594 262.769531 365.226562 187.304688 C 365.21875 185.394531 365.167969 183.488281 365.070312 181.578125 C 364.972656 179.671875 364.828125 177.769531 364.640625 175.867188 C 364.453125 173.964844 364.21875 172.070312 363.941406 170.183594 C 363.664062 168.292969 363.339844 166.410156 362.972656 164.535156 C 362.605469 162.660156 362.195312 160.796875 361.738281 158.941406 C 361.285156 157.085938 360.785156 155.246094 360.242188 153.414062 C 359.699219 151.582031 359.113281 149.765625 358.484375 147.960938 C 357.855469 146.160156 357.183594 144.371094 356.46875 142.597656 C 355.757812 140.828125 355 139.074219 354.203125 137.339844 C 353.40625 135.601562 352.570312 133.886719 351.691406 132.191406 C 350.816406 130.496094 349.898438 128.820312 348.941406 127.167969 C 347.980469 125.515625 346.988281 123.886719 345.953125 122.28125 C 344.917969 120.675781 343.84375 119.09375 342.734375 117.539062 C 341.628906 115.984375 340.480469 114.457031 339.300781 112.957031 C 338.117188 111.457031 336.902344 109.984375 335.648438 108.542969 C 334.398438 107.097656 333.113281 105.6875 331.796875 104.304688 C 330.476562 102.921875 329.125 101.574219 327.746094 100.253906 C 326.363281 98.9375 324.949219 97.652344 323.507812 96.402344 C 322.0625 95.152344 320.589844 93.933594 319.089844 92.753906 C 317.589844 91.570312 316.0625 90.425781 314.507812 89.316406 C 312.953125 88.207031 311.371094 87.136719 309.765625 86.101562 C 308.160156 85.070312 306.53125 84.074219 304.878906 83.117188 C 303.226562 82.160156 301.550781 81.242188 299.855469 80.363281 C 298.15625 79.488281 296.441406 78.652344 294.707031 77.855469 C 292.96875 77.058594 291.214844 76.304688 289.445312 75.589844 C 287.671875 74.878906 285.882812 74.207031 284.082031 73.578125 C 282.277344 72.949219 280.460938 72.363281 278.628906 71.820312 C 276.796875 71.277344 274.953125 70.78125 273.101562 70.324219 C 271.246094 69.871094 269.378906 69.460938 267.503906 69.09375 C 265.632812 68.726562 263.75 68.402344 261.859375 68.125 C 259.96875 67.847656 258.074219 67.617188 256.175781 67.429688 C 254.273438 67.242188 252.371094 67.097656 250.460938 67 Z M 203.1875 252.578125 L 176.480469 252.578125 C 176.074219 252.574219 175.675781 252.527344 175.277344 252.445312 C 174.878906 252.359375 174.496094 252.238281 174.121094 252.078125 C 173.75 251.917969 173.394531 251.722656 173.058594 251.496094 C 172.722656 251.265625 172.414062 251.007812 172.128906 250.71875 C 171.84375 250.429688 171.589844 250.117188 171.367188 249.777344 C 171.144531 249.4375 170.953125 249.082031 170.800781 248.707031 C 170.648438 248.332031 170.53125 247.945312 170.453125 247.546875 C 170.375 247.148438 170.335938 246.746094 170.335938 246.339844 C 170.335938 245.933594 170.375 245.53125 170.453125 245.132812 C 170.53125 244.734375 170.648438 244.347656 170.800781 243.972656 C 170.953125 243.597656 171.144531 243.238281 171.367188 242.902344 C 171.589844 242.5625 171.84375 242.25 172.128906 241.960938 C 172.414062 241.671875 172.722656 241.410156 173.058594 241.183594 C 173.394531 240.953125 173.75 240.761719 174.121094 240.601562 C 174.496094 240.441406 174.878906 240.320312 175.277344 240.234375 C 175.675781 240.152344 176.074219 240.105469 176.480469 240.101562 L 203.1875 240.101562 C 203.59375 240.105469 203.996094 240.152344 204.390625 240.234375 C 204.789062 240.320312 205.171875 240.441406 205.546875 240.601562 C 205.917969 240.761719 206.273438 240.953125 206.609375 241.183594 C 206.945312 241.410156 207.253906 241.671875 207.539062 241.960938 C 207.824219 242.25 208.078125 242.5625 208.300781 242.902344 C 208.527344 243.238281 208.714844 243.597656 208.867188 243.972656 C 209.023438 244.347656 209.136719 244.734375 209.21875 245.132812 C 209.296875 245.53125 209.335938 245.933594 209.335938 246.339844 C 209.335938 246.746094 209.296875 247.148438 209.21875 247.546875 C 209.136719 247.945312 209.023438 248.332031 208.867188 248.707031 C 208.714844 249.082031 208.527344 249.4375 208.300781 249.777344 C 208.078125 250.117188 207.824219 250.429688 207.539062 250.71875 C 207.253906 251.007812 206.945312 251.265625 206.609375 251.496094 C 206.273438 251.722656 205.917969 251.917969 205.546875 252.078125 C 205.171875 252.238281 204.789062 252.359375 204.390625 252.445312 C 203.996094 252.527344 203.59375 252.574219 203.1875 252.578125 Z M 212.796875 222.816406 L 166.871094 222.816406 C 166.46875 222.808594 166.066406 222.765625 165.667969 222.679688 C 165.273438 222.597656 164.886719 222.472656 164.511719 222.316406 C 164.140625 222.15625 163.785156 221.960938 163.449219 221.734375 C 163.117188 221.503906 162.804688 221.246094 162.519531 220.957031 C 162.234375 220.667969 161.980469 220.351562 161.757812 220.015625 C 161.535156 219.675781 161.34375 219.320312 161.191406 218.941406 C 161.039062 218.566406 160.921875 218.179688 160.84375 217.78125 C 160.765625 217.382812 160.726562 216.980469 160.726562 216.578125 C 160.726562 216.171875 160.765625 215.769531 160.84375 215.371094 C 160.921875 214.972656 161.039062 214.585938 161.191406 214.210938 C 161.34375 213.835938 161.535156 213.476562 161.757812 213.136719 C 161.980469 212.800781 162.234375 212.484375 162.519531 212.195312 C 162.804688 211.90625 163.117188 211.648438 163.449219 211.421875 C 163.785156 211.191406 164.140625 210.996094 164.515625 210.839844 C 164.886719 210.679688 165.273438 210.558594 165.667969 210.472656 C 166.066406 210.386719 166.46875 210.34375 166.875 210.335938 L 212.796875 210.335938 C 213.203125 210.34375 213.605469 210.386719 214.003906 210.46875 C 214.398438 210.554688 214.785156 210.675781 215.160156 210.835938 C 215.535156 210.992188 215.890625 211.1875 216.226562 211.414062 C 216.5625 211.644531 216.871094 211.902344 217.15625 212.191406 C 217.441406 212.480469 217.699219 212.796875 217.921875 213.132812 C 218.144531 213.472656 218.335938 213.832031 218.488281 214.207031 C 218.644531 214.582031 218.761719 214.96875 218.839844 215.367188 C 218.917969 215.765625 218.957031 216.171875 218.957031 216.578125 C 218.957031 216.984375 218.917969 217.386719 218.839844 217.785156 C 218.761719 218.183594 218.644531 218.570312 218.488281 218.945312 C 218.335938 219.320312 218.144531 219.679688 217.921875 220.019531 C 217.699219 220.359375 217.441406 220.671875 217.15625 220.960938 C 216.871094 221.25 216.5625 221.507812 216.226562 221.738281 C 215.890625 221.964844 215.535156 222.160156 215.160156 222.320312 C 214.785156 222.476562 214.398438 222.597656 214.003906 222.683594 C 213.605469 222.765625 213.203125 222.8125 212.796875 222.816406 Z M 170.242188 186.875 C 170.242188 186.464844 170.285156 186.0625 170.363281 185.660156 C 170.445312 185.257812 170.566406 184.867188 170.722656 184.492188 C 170.878906 184.113281 171.070312 183.753906 171.300781 183.414062 C 171.527344 183.074219 171.785156 182.757812 172.074219 182.46875 C 172.363281 182.179688 172.679688 181.921875 173.019531 181.695312 C 173.359375 181.464844 173.71875 181.273438 174.097656 181.117188 C 174.476562 180.960938 174.863281 180.839844 175.265625 180.757812 C 175.667969 180.679688 176.074219 180.636719 176.480469 180.636719 L 203.1875 180.636719 C 203.597656 180.636719 204.003906 180.675781 204.40625 180.757812 C 204.804688 180.835938 205.195312 180.953125 205.574219 181.113281 C 205.953125 181.269531 206.3125 181.460938 206.652344 181.6875 C 206.996094 181.914062 207.308594 182.175781 207.597656 182.464844 C 207.890625 182.753906 208.148438 183.070312 208.375 183.410156 C 208.601562 183.75 208.796875 184.109375 208.953125 184.488281 C 209.109375 184.867188 209.226562 185.257812 209.308594 185.660156 C 209.386719 186.0625 209.425781 186.464844 209.425781 186.875 C 209.425781 187.285156 209.386719 187.691406 209.308594 188.09375 C 209.226562 188.496094 209.109375 188.886719 208.953125 189.265625 C 208.796875 189.640625 208.601562 190 208.375 190.34375 C 208.148438 190.683594 207.890625 191 207.597656 191.289062 C 207.308594 191.578125 206.996094 191.835938 206.652344 192.0625 C 206.3125 192.292969 205.953125 192.484375 205.574219 192.640625 C 205.195312 192.796875 204.804688 192.914062 204.40625 192.996094 C 204.003906 193.074219 203.597656 193.117188 203.1875 193.117188 L 176.480469 193.117188 C 176.074219 193.113281 175.667969 193.074219 175.265625 192.992188 C 174.863281 192.910156 174.476562 192.792969 174.097656 192.636719 C 173.71875 192.476562 173.359375 192.285156 173.019531 192.058594 C 172.679688 191.832031 172.363281 191.570312 172.074219 191.28125 C 171.785156 190.992188 171.527344 190.679688 171.300781 190.339844 C 171.070312 189.996094 170.878906 189.640625 170.722656 189.261719 C 170.566406 188.882812 170.445312 188.492188 170.363281 188.09375 C 170.285156 187.691406 170.242188 187.285156 170.242188 186.875 Z M 219.035156 157.175781 C 219.039062 157.585938 219 157.992188 218.917969 158.394531 C 218.839844 158.796875 218.722656 159.1875 218.566406 159.566406 C 218.410156 159.945312 218.21875 160.304688 217.992188 160.648438 C 217.761719 160.988281 217.503906 161.304688 217.214844 161.59375 C 216.925781 161.882812 216.609375 162.144531 216.269531 162.371094 C 215.925781 162.597656 215.566406 162.789062 215.1875 162.945312 C 214.808594 163.101562 214.417969 163.21875 214.015625 163.300781 C 213.613281 163.378906 213.207031 163.417969 212.796875 163.414062 L 166.871094 163.414062 C 166.464844 163.414062 166.058594 163.375 165.65625 163.296875 C 165.253906 163.214844 164.863281 163.097656 164.484375 162.941406 C 164.105469 162.785156 163.746094 162.589844 163.40625 162.363281 C 163.066406 162.136719 162.75 161.878906 162.460938 161.585938 C 162.171875 161.296875 161.914062 160.984375 161.683594 160.640625 C 161.457031 160.300781 161.265625 159.941406 161.109375 159.5625 C 160.953125 159.183594 160.832031 158.792969 160.753906 158.394531 C 160.671875 157.992188 160.632812 157.585938 160.632812 157.175781 C 160.632812 156.765625 160.671875 156.359375 160.753906 155.957031 C 160.832031 155.554688 160.953125 155.167969 161.109375 154.789062 C 161.265625 154.410156 161.457031 154.050781 161.683594 153.707031 C 161.914062 153.367188 162.171875 153.054688 162.460938 152.761719 C 162.75 152.472656 163.066406 152.214844 163.40625 151.988281 C 163.746094 151.761719 164.105469 151.566406 164.484375 151.410156 C 164.863281 151.253906 165.253906 151.136719 165.65625 151.054688 C 166.058594 150.976562 166.464844 150.9375 166.871094 150.9375 L 212.796875 150.9375 C 213.207031 150.933594 213.613281 150.96875 214.019531 151.046875 C 214.421875 151.121094 214.8125 151.238281 215.195312 151.394531 C 215.574219 151.550781 215.933594 151.742188 216.277344 151.96875 C 216.621094 152.195312 216.9375 152.453125 217.226562 152.746094 C 217.515625 153.035156 217.777344 153.351562 218.003906 153.695312 C 218.230469 154.035156 218.421875 154.398438 218.578125 154.777344 C 218.734375 155.160156 218.847656 155.550781 218.925781 155.953125 C 219.003906 156.359375 219.039062 156.765625 219.035156 157.175781 Z M 209.425781 127.414062 C 209.425781 127.820312 209.382812 128.226562 209.304688 128.628906 C 209.222656 129.03125 209.105469 129.417969 208.945312 129.796875 C 208.789062 130.175781 208.597656 130.535156 208.371094 130.875 C 208.140625 131.214844 207.882812 131.53125 207.59375 131.820312 C 207.304688 132.109375 206.988281 132.367188 206.648438 132.59375 C 206.308594 132.824219 205.949219 133.015625 205.570312 133.171875 C 205.195312 133.328125 204.804688 133.449219 204.402344 133.527344 C 204 133.609375 203.597656 133.652344 203.1875 133.652344 L 176.480469 133.652344 C 176.070312 133.652344 175.667969 133.613281 175.265625 133.53125 C 174.863281 133.453125 174.472656 133.335938 174.09375 133.175781 C 173.714844 133.019531 173.355469 132.828125 173.015625 132.601562 C 172.675781 132.375 172.359375 132.113281 172.070312 131.824219 C 171.78125 131.535156 171.519531 131.21875 171.292969 130.878906 C 171.066406 130.539062 170.875 130.179688 170.71875 129.800781 C 170.558594 129.421875 170.441406 129.03125 170.363281 128.628906 C 170.28125 128.226562 170.242188 127.824219 170.242188 127.414062 C 170.242188 127.003906 170.28125 126.597656 170.363281 126.195312 C 170.441406 125.792969 170.558594 125.402344 170.71875 125.023438 C 170.875 124.644531 171.066406 124.285156 171.292969 123.945312 C 171.519531 123.605469 171.78125 123.289062 172.070312 123 C 172.359375 122.710938 172.675781 122.453125 173.015625 122.222656 C 173.355469 121.996094 173.714844 121.804688 174.09375 121.648438 C 174.472656 121.492188 174.863281 121.371094 175.265625 121.292969 C 175.667969 121.214844 176.070312 121.171875 176.480469 121.171875 L 203.1875 121.171875 C 203.597656 121.175781 204 121.214844 204.402344 121.296875 C 204.804688 121.375 205.195312 121.496094 205.570312 121.652344 C 205.949219 121.808594 206.308594 122.003906 206.648438 122.230469 C 206.988281 122.457031 207.304688 122.714844 207.59375 123.007812 C 207.882812 123.296875 208.140625 123.609375 208.371094 123.949219 C 208.597656 124.289062 208.789062 124.648438 208.945312 125.027344 C 209.105469 125.40625 209.222656 125.796875 209.304688 126.195312 C 209.382812 126.597656 209.425781 127.003906 209.425781 127.414062 Z M 209.425781 127.414062 " fill-opacity="1" fill-rule="nonzero"/></g><g clip-path="url(#e02673cd18)"><g clip-path="url(#45136141f0)"><g transform="matrix(1, 0, 0, 1, 143, 226)"><g clip-path="url(#c054055766)"><g clip-path="url(#0cfb061ab7)"><g clip-path="url(#72fb6b79ef)"><path fill="#ff5c35" d="M 0.625 0.480469 L 88.375 0.480469 L 88.375 5.914062 L 0.625 5.914062 Z M 0.625 0.480469 " fill-opacity="1" fill-rule="nonzero"/></g></g></g></g></g></g></svg>